                        Clean Scene Releases and no fakes
    

                               https://bitxtre.me/

                             Secure SSL Downloading
-----------------------------------------------------------------------------------



Ripper ...........: COPYxRiGHT                                                            
Video Codec.......: Xvid                                        
Audio Codec.......:AC3                                          
Audio Bitrate.....:448                                              
Subtitles.........:NIL                                                
Resolution...... 720 x 404                                    
Language..........:ENGLISH
IMDB Rating.......:7.4/10                            
IMDB URL..........: http://www.imdb.com/title/tt1060277/

General
Complete name                    : C:\uploads\Cloverfield.BRRip.Xvid.AC3\Cloverfield.2009.BRRip.Xvid.AC3.avi
Format                           : AVI
Format/Info                      : Audio Video Interleave
File size                        : 1.35 GiB
Duration                         : 1h 17mn
Overall bit rate                 : 2 497 Kbps
Writing library                  : VirtualDub build 32842/release

Video
ID                               : 0
Format                           : MPEG-4 Visual
Format profile                   : Advanced Simple@L5
Format settings, BVOP            : 2
Format settings, QPel            : No
Format settings, GMC             : No warppoints
Format settings, Matrix          : Default (H.263)
Codec ID                         : XVID
Codec ID/Hint                    : XviD
Duration                         : 1h 17mn
Bit rate                         : 2 040 Kbps
Width                            : 720 pixels
Height                           : 404 pixels
Display aspect ratio             : 16:9
Frame rate                       : 23.976 fps
Color space                      : YUV
Chroma subsampling               : 4:2:0
Bit depth                        : 8 bits
Scan type                        : Progressive
Compression mode                 : Lossy
Bits/(Pixel*Frame)               : 0.293
Stream size                      : 1.10 GiB (82%)
Writing library                  : XviD 63

Audio
ID                               : 1
Format                           : AC-3
Format/Info                      : Audio Coding 3
Mode extension                   : CM (complete main)
Codec ID                         : 2000
Duration                         : 1h 17mn
Bit rate mode                    : Constant
Bit rate                         : 448 Kbps
Channel(s)                       : 6 channels
Channel positions                : Front: L C R, Side: L R, LFE
Sampling rate                    : 48.0 KHz
Bit depth                        : 16 bits
Compression mode                 : Lossy
Stream size                      : 248 MiB (18%)
Alignment                        : Aligned on interleaves
Interleave, duration             : 42 ms (1.00 video frame)
Interleave, preload duration     : 512 ms

Source: Own


Cloverfield follows five New Yorkers from the perspective of a hand-held video camera. The movie is exactly the length of a DV Tape and a sub-plot is established by showing bits and pieces of video previously recorded on the tape that is being recorded over.The US Defense Department finds the videotape in the former Central Park. The footage shows a group of friends celebrating a surprise farewell party in the apartment of Rob Hawkins in Lower Manhattan. 